<svg id="Grupo_171" data-name="Grupo 171" xmlns="http://www.w3.org/2000/svg" width="259.158" height="50.14" viewBox="0 0 259.158 50.14">
  <path id="Trazado_1" data-name="Trazado 1" d="M0,3.165V38.807H6.342v-15H22.05V18.47H6.342V8.7H23.007V3.165Z" transform="translate(0 -0.748)" fill="#414042"/>
  <path id="Trazado_2" data-name="Trazado 2" d="M37.71,2.7a3.717,3.717,0,0,1,3.926,3.625,3.885,3.885,0,0,1-7.752,0A3.722,3.722,0,0,1,37.71,2.7" transform="translate(-8.007 -0.639)" fill="#fcbd0d"/>
  <path id="Trazado_3" data-name="Trazado 3" d="M51.221,17.977H56.96v3.877h.1a8.228,8.228,0,0,1,7.5-4.58c6.294,0,8.91,4.832,8.91,9.765v15.1H67.431V28.751c0-2.87-.654-6.444-4.53-6.444-3.827,0-5.639,3.323-5.639,6.545v13.29H51.221Z" transform="translate(-12.104 -4.082)" fill="#414042"/>
  <path id="Trazado_4" data-name="Trazado 4" d="M83.72,20.863V16.029h4.229v-7H93.89v7h6.041v4.834H93.89V32.089c0,2.165.5,3.725,3.171,3.725a6.316,6.316,0,0,0,2.567-.5l.2,4.732A12.533,12.533,0,0,1,95.8,40.7c-6.393,0-7.854-3.926-7.854-8.556V20.863Z" transform="translate(-19.784 -2.134)" fill="#414042"/>
  <path id="Trazado_5" data-name="Trazado 5" d="M131.934,31.973H113.558a6.724,6.724,0,0,0,6.9,5.939,7.324,7.324,0,0,0,6.393-3.12l4.028,3.221c-2.366,3.221-5.789,4.833-10.371,4.833-7.45,0-12.987-4.783-12.987-12.635,0-7.8,5.486-12.938,12.787-12.938,6.746,0,11.679,4.38,11.679,13.089,0,.554,0,1.056-.05,1.611m-5.992-4.329c0-3.121-1.761-5.84-5.688-5.84a6.452,6.452,0,0,0-6.7,5.84Z" transform="translate(-25.407 -4.082)" fill="#414042"/>
  <rect id="Rectángulo_1" data-name="Rectángulo 1" width="6.042" height="38.059" transform="translate(111.511)" fill="#414042"/>
  <rect id="Rectángulo_2" data-name="Rectángulo 2" width="6.042" height="38.059" transform="translate(123.995)" fill="#414042"/>
  <rect id="Rectángulo_3" data-name="Rectángulo 3" width="6.042" height="24.164" transform="translate(136.479 13.895)" fill="#414042"/>
  <path id="Trazado_6" data-name="Trazado 6" d="M218.111,17.976v22c0,8.71-4.228,14.248-13.644,14.248a20.256,20.256,0,0,1-11.981-3.977l3.474-4.682a12.4,12.4,0,0,0,8.459,3.424c5.838,0,7.651-3.524,7.651-8.307V38.917h-.1a9.514,9.514,0,0,1-7.9,3.626c-7.247,0-11.93-5.74-11.93-12.584,0-7,4.531-12.686,11.83-12.686a9.4,9.4,0,0,1,8.307,4.329h.1V17.976ZM198.277,29.908c0,3.826,2.565,7.651,6.9,7.651,4.479,0,7.2-3.624,7.2-7.651,0-4.179-2.768-7.7-7.15-7.7s-6.945,3.422-6.945,7.7" transform="translate(-45.403 -4.082)" fill="#414042"/>
  <path id="Trazado_7" data-name="Trazado 7" d="M255.708,31.973H237.334a6.722,6.722,0,0,0,6.9,5.939,7.323,7.323,0,0,0,6.394-3.12l4.028,3.221c-2.366,3.221-5.79,4.833-10.369,4.833-7.451,0-12.99-4.783-12.99-12.635,0-7.8,5.488-12.938,12.787-12.938,6.747,0,11.681,4.38,11.681,13.089,0,.554,0,1.056-.051,1.611m-5.99-4.329c0-3.121-1.763-5.84-5.688-5.84a6.451,6.451,0,0,0-6.7,5.84Z" transform="translate(-54.656 -4.082)" fill="#414042"/>
  <path id="Trazado_8" data-name="Trazado 8" d="M269.66,17.977h5.74v3.877h.1a8.225,8.225,0,0,1,7.5-4.58c6.294,0,8.911,4.832,8.911,9.765v15.1h-6.042V28.751c0-2.87-.654-6.444-4.531-6.444-3.825,0-5.639,3.323-5.639,6.545v13.29H269.66Z" transform="translate(-63.723 -4.082)" fill="#414042"/>
  <path id="Trazado_9" data-name="Trazado 9" d="M302.156,20.863V16.029h4.23v-7h5.939v7h6.042v4.834h-6.042V32.089c0,2.165.506,3.725,3.172,3.725a6.309,6.309,0,0,0,2.568-.5l.2,4.732a12.534,12.534,0,0,1-4.028.654c-6.393,0-7.853-3.926-7.853-8.556V20.863Z" transform="translate(-71.402 -2.134)" fill="#414042"/>
  <path id="Trazado_10" data-name="Trazado 10" d="M181.416,2.7a3.717,3.717,0,0,1,3.928,3.625,3.885,3.885,0,0,1-7.753,0A3.722,3.722,0,0,1,181.416,2.7" transform="translate(-41.966 -0.639)" fill="#007dc5"/>
  <path id="Trazado_11" data-name="Trazado 11" d="M333.022,41.463a3.63,3.63,0,1,1-3.828,3.625,3.718,3.718,0,0,1,3.828-3.625" transform="translate(-77.791 -9.798)" fill="#fd5421"/>
  <rect id="Rectángulo_4" data-name="Rectángulo 4" width="6.042" height="24.164" transform="translate(26.732 13.895)" fill="#414042"/>
</svg>
